# xmcd
#
# Track frame offsets: 
#        150
#        15937
#        31360
#        45287
#        64617
#        76640
#        88670
#        109362
#        121487
#        136730
#        152090
#        164240
#
# Disc length: 2411 seconds
#
# Revision: 0
# Processed by: cddbd v1.5.2PL0 Copyright (c) Steve Scherf et al.
# Submitted via: ExactAudioCopy v0.95b4
#
DISCID=8c09690c
DTITLE=Tish and Company - Go With It
DYEAR=2011
DGENRE=Bluegrass
TTITLE0=Bitter Memories
TTITLE1=Blues Stay Away From Me
TTITLE2=Go With It
TTITLE3=It Still Hurts
TTITLE4=Jumping Ship
TTITLE5=Just In Case
TTITLE6=Once Upon A Road
TTITLE7=Sitting On Top Of The World
TTITLE8=There's Somebody Out There
TTITLE9=Spending Time With A Man Named JESUS
TTITLE10=Sun's Gonna Shine
TTITLE11=There Is A Time
EXTD=
EXTT0=
EXTT1=
EXTT2=
EXTT3=
EXTT4=
EXTT5=
EXTT6=
EXTT7=
EXTT8=
EXTT9=
EXTT10=
EXTT11=
PLAYORDER=
